<svg width="100" height="82" viewBox="0 0 100 82" fill="none" xmlns="http://www.w3.org/2000/svg">
<path fill-rule="evenodd" clip-rule="evenodd" d="M59.457 14.8713C63.6223 14.8713 67.0472 11.5665 67.0472 7.43563C67.0472 3.30473 63.6223 0 59.457 0C55.3841 0 51.9593 3.30473 51.9593 7.43563C51.9593 11.5359 55.3841 14.8713 59.457 14.8713ZM41.0367 61.3516C41.0367 50.0911 31.8729 41.0031 20.5184 41.0031C9.2564 41.0031 0 50.0911 0 61.3516C0 72.6122 9.2564 81.7002 20.5184 81.7002C31.8729 81.7002 41.0367 72.5816 41.0367 61.3516ZM20.5184 41.5845C23.2027 41.5845 25.7637 42.1659 28.1086 43.145C30.6078 44.1242 32.7677 45.5318 34.6189 47.3677C36.4394 49.1731 37.9513 51.4069 38.9695 53.8242C39.9568 56.1497 40.4813 58.6895 40.4813 61.3516C40.4813 64.0138 39.9877 66.5535 38.9695 68.8791C37.9513 71.3576 36.4702 73.4996 34.6189 75.3355C32.7985 77.1409 30.6078 78.6403 28.1086 79.65C25.7637 80.568 23.2027 81.1494 20.5184 81.1494C17.834 81.1494 15.2731 80.568 12.9281 79.65C10.5214 78.6708 8.26905 77.1715 6.51034 75.3355C4.68991 73.5302 3.17803 71.3576 2.15983 68.8791C1.17248 66.5535 0.647948 64.0138 0.647948 61.3516C0.647948 58.6895 1.14162 56.1497 2.15983 53.8242C3.14718 51.4375 4.65906 49.2037 6.51034 47.3677C8.26905 45.5318 10.5214 44.1548 12.9281 43.145C15.2731 42.1659 17.834 41.5845 20.5184 41.5845ZM31.7803 50.2441C30.2684 48.7447 28.5406 47.6125 26.6276 46.7558C24.7763 46.0214 22.709 45.593 20.5492 45.593C18.3894 45.593 16.3838 45.9908 14.5326 46.7558C12.527 47.5819 10.8608 48.7447 9.34897 50.2441C7.83709 51.6516 6.66461 53.3958 5.9241 55.293C5.09102 57.1901 4.68991 59.1791 4.68991 61.321C4.68991 63.463 5.09102 65.5437 5.9241 67.3491C6.66461 69.2463 7.83709 70.9904 9.34897 72.4898C12.1876 75.3049 16.1987 77.0491 20.5184 77.0491C22.6782 77.0491 24.7763 76.6207 26.5967 75.8863C28.5097 75.0601 30.2684 73.8974 31.7495 72.4898C33.1688 70.9904 34.3413 69.2769 35.1743 67.3491C35.9148 65.5437 36.3468 63.463 36.3468 61.321C36.3468 59.1791 35.9457 57.1901 35.1743 55.293C34.3721 53.3958 33.1996 51.6516 31.7803 50.2441ZM79.4816 81.7002C90.8362 81.7002 100 72.6122 100 61.3516C100 50.0911 90.8362 41.0031 79.4816 41.0031C68.1271 41.0031 58.9633 50.0911 58.9633 61.3516C58.9633 72.5816 68.1271 81.7002 79.4816 81.7002ZM79.4816 41.5845C82.1351 41.5845 84.7269 42.1659 87.0719 43.145C89.4786 44.1242 91.7309 45.5318 93.5822 47.3677C95.341 49.1731 96.822 51.4069 97.8402 53.8242C98.8275 56.1497 99.3521 58.6895 99.3521 61.3516C99.3521 64.0138 98.8584 66.5535 97.8402 68.8791C96.822 71.3576 95.341 73.4996 93.5822 75.3355C91.7618 77.1409 89.5094 78.6403 87.0719 79.65C84.7269 80.568 82.1351 81.1494 79.4816 81.1494C76.7973 81.1494 74.2364 80.568 71.8914 79.65C69.3922 78.6708 67.2323 77.1715 65.3811 75.3355C63.5606 73.5302 62.0488 71.3576 61.0614 68.8791C60.1358 66.5535 59.5495 64.0138 59.5495 61.3516C59.5495 58.6895 60.1358 56.1497 61.0614 53.8242C62.0488 51.4375 63.5606 49.2037 65.3811 47.3677C67.2323 45.5318 69.3922 44.1548 71.8914 43.145C74.2364 42.1659 76.7973 41.5845 79.4816 41.5845ZM90.651 50.2441C89.2317 48.7447 87.473 47.6125 85.56 46.7558C83.647 46.0214 81.6415 45.593 79.4816 45.593C77.3218 45.593 75.2237 45.9908 73.4033 46.7558C71.4903 47.5819 69.7316 48.7447 68.2197 50.2441C66.8004 51.6516 65.6279 53.3958 64.7948 55.293C64.0543 57.1901 63.6223 59.1791 63.6223 61.321C63.6223 63.463 64.0235 65.5437 64.7948 67.3491C65.6279 69.2463 66.8004 70.9904 68.2197 72.4898C71.1509 75.3049 75.0694 77.0491 79.4816 77.0491C81.6415 77.0491 83.647 76.6207 85.56 75.8863C87.473 75.0601 89.2317 73.8974 90.651 72.4898C92.1629 70.9904 93.3045 69.2769 94.1376 67.3491C94.8781 65.5437 95.3101 63.463 95.3101 61.321C95.3101 59.1791 94.909 57.1901 94.1376 55.293C93.3354 53.3958 92.1629 51.6516 90.651 50.2441ZM56.7109 31.0583C57.544 32.4659 58.7164 32.9555 59.7964 32.9555H74.3906C78.8954 32.9555 78.8954 27.0804 74.3906 27.0804L61.8019 27.1722L53.5329 14.2593C53.5329 14.2593 51.7741 11.3523 48.4418 11.3523C48.4418 11.3523 45.6958 11.0158 43.6902 13.2495L27.7692 29.0694C26.7819 30.1403 26.1956 31.6397 26.1956 33.2921C26.1956 35.6176 27.5224 37.6678 29.4354 38.7387L45.6032 47.6737V49.4179C45.6032 51.8046 47.6088 53.7936 49.9537 53.7936C52.3604 53.7936 54.3042 51.8046 54.3042 49.4179V43.451C54.3042 43.451 54.8905 40.1463 51.0645 38.2491L41.7155 33.3839L51.805 23.5309L56.7109 31.0583Z" fill="#FF8000"/>
</svg>
