<svg width="100" height="100" viewBox="0 0 100 100" fill="none" xmlns="http://www.w3.org/2000/svg">
<path fill-rule="evenodd" clip-rule="evenodd" d="M35.2941 5H29.4118V10H44.1177V15H29.4118V20.2075C37.7588 21.3975 44.1177 27.5675 44.1177 35V40H8.82354V35C8.82407 31.4551 10.3011 28.0248 12.9929 25.3171C15.6848 22.6095 19.4174 20.7993 23.5294 20.2075V15H17.1471C16.4525 16.6679 15.0868 18.0734 13.2913 18.9684C11.4957 19.8634 9.38584 20.1902 7.3343 19.8911C5.28276 19.592 3.42159 18.6862 2.07955 17.3338C0.737515 15.9813 0.000965691 14.2693 9.80094e-06 12.5C-0.00309459 10.7288 0.731367 9.01383 2.07331 7.65882C3.41525 6.30381 5.27808 5.39621 7.33184 5.09678C9.38561 4.79735 11.4978 5.1254 13.2943 6.02283C15.0907 6.92027 16.4556 8.32917 17.1471 10H23.5294V5H17.6471V0H35.2941V5ZM8.82354 45V97.5C8.82354 98.163 9.13341 98.7989 9.68499 99.2678C10.2366 99.7366 10.9847 100 11.7647 100H41.1765C41.9565 100 42.7046 99.7366 43.2562 99.2678C43.8078 98.7989 44.1177 98.163 44.1177 97.5V45H8.82354ZM8.82354 10C8.04349 10 7.29539 10.2634 6.74381 10.7322C6.19224 11.2011 5.88236 11.837 5.88236 12.5C5.88236 13.163 6.19224 13.7989 6.74381 14.2678C7.29539 14.7366 8.04349 15 8.82354 15C9.60359 15 10.3517 14.7366 10.9033 14.2678C11.4548 13.7989 11.7647 13.163 11.7647 12.5C11.7647 11.837 11.4548 11.2011 10.9033 10.7322C10.3517 10.2634 9.60359 10 8.82354 10ZM55.8824 42.5C55.8824 39.8478 57.1219 37.3043 59.3282 35.4289C61.5345 33.5536 64.5269 32.5 67.6471 32.5C70.7673 32.5 73.7597 33.5536 75.966 35.4289C78.1723 37.3043 79.4118 39.8478 79.4118 42.5V57.5C79.4118 60.1522 78.1723 62.6957 75.966 64.5711C73.7597 66.4464 70.7673 67.5 67.6471 67.5C64.5269 67.5 61.5345 66.4464 59.3282 64.5711C57.1219 62.6957 55.8824 60.1522 55.8824 57.5V42.5ZM67.6471 37.5C66.087 37.5 64.5908 38.0268 63.4876 38.9645C62.3845 39.9021 61.7647 41.1739 61.7647 42.5V57.5C61.7647 58.8261 62.3845 60.0978 63.4876 61.0355C64.5908 61.9732 66.087 62.5 67.6471 62.5C69.2072 62.5 70.7034 61.9732 71.8065 61.0355C72.9097 60.0978 73.5294 58.8261 73.5294 57.5V42.5C73.5294 41.1739 72.9097 39.9021 71.8065 38.9645C70.7034 38.0268 69.2072 37.5 67.6471 37.5ZM82.353 55H91.1765C91.9565 55 92.7046 55.2634 93.2562 55.7322C93.8078 56.2011 94.1177 56.837 94.1177 57.5C94.1177 58.163 93.8078 58.7989 93.2562 59.2678C92.7046 59.7366 91.9565 60 91.1765 60C88.8363 60 86.592 60.7902 84.9373 62.1967C83.2826 63.6032 82.353 65.5109 82.353 67.5V72.5C82.353 73.163 82.6628 73.7989 83.2144 74.2678C83.766 74.7366 84.5141 75 85.2941 75H100V70H88.2353V67.5C88.2353 66.837 88.5452 66.2011 89.0967 65.7322C89.6483 65.2634 90.3964 65 91.1765 65C93.5166 65 95.7609 64.2098 97.4156 62.8033C99.0704 61.3968 100 59.4891 100 57.5C100 55.5109 99.0704 53.6032 97.4156 52.1967C95.7609 50.7902 93.5166 50 91.1765 50H82.353V55Z" fill="#FF8000"/>
</svg>
